<svg width="16" height="16" viewBox="0 0 16 16" fill="none" xmlns="http://www.w3.org/2000/svg">
<path d="M16 8C16 9.58225 15.5308 11.129 14.6518 12.4446C13.7727 13.7602 12.5233 14.7855 11.0615 15.391C9.59966 15.9965 7.99113 16.155 6.43928 15.8463C4.88743 15.5376 3.46197 14.7757 2.34315 13.6569C1.22433 12.538 0.4624 11.1126 0.153718 9.56072C-0.154964 8.00887 0.00346269 6.40034 0.608964 4.93853C1.21446 3.47672 2.23985 2.22729 3.55544 1.34824C4.87103 0.469192 6.41775 -1.88681e-08 8 0V1.44C6.70255 1.44 5.43425 1.82474 4.35546 2.54556C3.27667 3.26638 2.43586 4.29091 1.93935 5.4896C1.44284 6.68828 1.31293 8.00728 1.56605 9.27979C1.81917 10.5523 2.44395 11.7212 3.36138 12.6386C4.27881 13.5561 5.44769 14.1808 6.72021 14.434C7.99272 14.6871 9.31172 14.5572 10.5104 14.0606C11.7091 13.5641 12.7336 12.7233 13.4544 11.6445C14.1753 10.5658 14.56 9.29745 14.56 8H16Z" fill="#00A8A5"/>
</svg>
